# xmcd
#
# Track frame offsets:
#       150
#       20605
#       33847
#       51885
#       75234
#       89789
#       103233
#       115687
#       129221
#       145367
#       168601
#       178823
#       194973
#       212937
#
# Disc length: 3006 seconds
#
# Revision: 0
# Processed by: cddbd v1.5.2PL0 Copyright (c) Steve Scherf et al.
# Submitted via: CD-DA_X-Tractor v0.21
#
DISCID=cd0bbc0e
DTITLE=Peter Wolf - Midnight Souvenirs
DYEAR=1900
DGENRE=
TTITLE0=Tradegy
TTITLE1=I Don't Wanna Know
TTITLE2=Watch Her Move
TTITLE3=There's Still Time
TTITLE4=Lying Low
TTITLE5=The Green Fields Of Summer
TTITLE6=Thick As Thieves
TTITLE7=Always Asking You
TTITLE8=Then It Leaves Us All Behind
TTITLE9=Overnight LOws
TTITLE10=Everything I Do Gonna Be Funky
TTITLE11=Don't Try To Change Her
TTITLE12=The Night Comes DOwn ( For Willy DeVille)
TTITLE13=It's TOo Late For Me
EXTD=
EXTT0=
EXTT1=
EXTT2=
EXTT3=
EXTT4=
EXTT5=
EXTT6=
EXTT7=
EXTT8=
EXTT9=
EXTT10=
EXTT11=
EXTT12=
EXTT13=
PLAYORDER=
